<svg xmlns="http://www.w3.org/2000/svg" version="1.1" width="120" height="120" viewBox="0 0 437.000000 437.000000" preserveAspectRatio="xMidYMid meet"><g transform="translate(0.000000,437.000000) scale(0.100000,-0.100000)" fill="#1d4ed8" stroke="none"><path d="M2105 4060 c-125 -73 -266 -155 -440 -255 -241 -138 -482 -278 -655
-378 -85 -49 -230 -132 -322 -185 l-168 -96 0 -962 0 -962 42 -25 c58 -32 350
-201 471 -270 53 -32 140 -82 192 -112 52 -30 139 -80 193 -112 53 -31 153
-88 222 -128 69 -40 168 -97 220 -127 52 -30 140 -81 195 -113 55 -31 105 -62
112 -67 12 -10 38 3 268 137 213 124 294 171 418 242 70 40 184 106 255 146
70 41 171 99 225 130 53 32 141 82 195 114 53 31 148 85 210 121 l112 64 0
962 0 962 -107 61 c-60 33 -164 93 -233 133 -290 168 -464 268 -615 355 -88
51 -205 118 -260 150 -55 32 -174 101 -265 153 -91 52 -169 98 -175 102 -5 3
-46 -14 -90 -40z m-7 -390 l-3 -164 -55 -31 c-64 -36 -382 -220 -655 -378
-104 -61 -236 -137 -292 -170 l-103 -59 0 -638 0 -638 -132 -76 c-73 -41 -141
-78 -151 -82 -16 -6 -17 35 -15 801 l3 808 70 42 c39 23 194 113 345 200 559
322 797 460 885 511 50 29 93 49 98 45 4 -4 6 -81 5 -171z m530 -21 c191 -111
363 -210 382 -221 317 -180 570 -328 570 -333 0 -2 -55 -36 -122 -76 -68 -39
-153 -89 -190 -111 l-68 -40 0 -637 c0 -595 -1 -637 -17 -647 -20 -12 -220
-128 -413 -239 -150 -87 -525 -302 -560 -323 -25 -14 -31 -12 -150 59 -69 41
-191 113 -272 159 l-147 85 -1 583 c0 464 3 582 13 576 12 -8 522 -404 846
-657 198 -155 353 -275 382 -296 19 -13 19 -2 19 797 l0 811 -82 49 c-77 45
-153 90 -433 254 l-110 64 -3 172 c-1 95 0 172 3 172 3 0 162 -91 353 -201z
m-390 -323 c20 -13 82 -50 137 -82 55 -32 144 -84 197 -115 53 -32 111 -65
127 -74 l31 -16 0 -579 c0 -319 -3 -580 -7 -580 -5 0 -69 48 -143 106 -74 58
-154 120 -176 137 -23 18 -99 77 -170 133 -71 55 -272 211 -446 347 l-318 246
0 -812 0 -812 153 -89 c83 -49 225 -132 315 -185 l162 -96 0 -167 c0 -131 -3
-168 -13 -168 -7 0 -17 4 -22 9 -6 5 -100 61 -210 124 -110 63 -256 147 -325
187 -69 39 -263 151 -432 248 -170 97 -308 179 -308 182 0 3 57 39 128 79 70
41 154 91 187 111 l60 37 5 639 5 639 80 46 c44 25 125 72 180 104 120 70 382
221 558 322 71 40 139 80 150 88 30 21 51 19 95 -9z m1420 -2012 c-7 -6 -78
-48 -158 -94 -320 -184 -548 -315 -600 -345 -79 -46 -452 -260 -541 -312 -42
-23 -80 -43 -83 -43 -3 0 -6 76 -6 168 l0 168 553 320 552 319 3 637 2 638 27
17 c15 10 79 47 143 83 l115 66 3 -805 c2 -636 -1 -808 -10 -817z"></path></g></svg>